<svg xmlns="http://www.w3.org/2000/svg" xmlns:xlink="http://www.w3.org/1999/xlink" width="48" height="37.92" viewBox="0 0 48 37.92">
  <defs>
    <linearGradient id="linear-gradient" x1="0.5" x2="0.5" y2="1" gradientUnits="objectBoundingBox">
      <stop offset="0" stop-color="#fff"/>
      <stop offset="1" stop-color="#ffb4cc"/>
    </linearGradient>
    <filter id="joystick" x="0" y="0" width="48" height="37.92" filterUnits="userSpaceOnUse">
      <feOffset dy="3" input="SourceAlpha"/>
      <feGaussianBlur stdDeviation="3" result="blur"/>
      <feFlood flood-opacity="0.161"/>
      <feComposite operator="in" in2="blur"/>
      <feComposite in="SourceGraphic"/>
    </filter>
  </defs>
  <g transform="matrix(1, 0, 0, 1, 0, 0)" filter="url(#joystick)">
    <path id="joystick-2" data-name="joystick" d="M29.769,15.555a1.172,1.172,0,0,1-2.253-.645,3.6,3.6,0,0,0-.046-2.129L24.832,4.823A3.612,3.612,0,0,0,21.4,2.343H8.6A3.612,3.612,0,0,0,5.168,4.823L2.53,12.781a3.639,3.639,0,0,0,.2,2.784,3.575,3.575,0,0,0,4.847,1.61A3.655,3.655,0,0,0,9.4,15.058l.173-.523a3.592,3.592,0,0,1,3.415-2.466h4.027a3.592,3.592,0,0,1,3.415,2.466l.173.523a3.678,3.678,0,0,0,3.433,2.518,3.6,3.6,0,0,0,.875-.108,1.172,1.172,0,0,1,.569,2.273,5.949,5.949,0,0,1-1.444.178,5.883,5.883,0,0,1-3.462-1.128,6,6,0,0,1-2.2-3l-.173-.523a1.252,1.252,0,0,0-1.19-.86H12.986a1.252,1.252,0,0,0-1.191.859l-.173.524a5.984,5.984,0,0,1-2.977,3.467A5.919,5.919,0,0,1,.634,16.61a5.967,5.967,0,0,1-.329-4.566L2.944,4.085A5.952,5.952,0,0,1,8.6,0H21.4a5.952,5.952,0,0,1,5.659,4.086l2.638,7.959a5.932,5.932,0,0,1,.075,3.511Zm-9.2-11.337A1.172,1.172,0,1,0,21.738,5.39,1.172,1.172,0,0,0,20.566,4.218Zm0,7.031a1.172,1.172,0,1,0-1.172-1.172A1.172,1.172,0,0,0,20.566,11.249ZM18.222,6.562a1.172,1.172,0,1,0,1.172,1.172A1.172,1.172,0,0,0,18.222,6.562Zm4.687,2.344a1.172,1.172,0,1,0-1.172-1.172A1.172,1.172,0,0,0,22.909,8.905ZM9.434,11.249a1.172,1.172,0,0,0,1.172-1.172V8.905h1.172a1.172,1.172,0,0,0,0-2.344H10.606V5.39a1.172,1.172,0,1,0-2.344,0V6.562H7.09a1.172,1.172,0,1,0,0,2.344H8.262v1.172A1.172,1.172,0,0,0,9.434,11.249Zm0,0" transform="translate(9 6)" fill="url(#linear-gradient)"/>
  </g>
</svg>
