<svg xmlns="http://www.w3.org/2000/svg" xmlns:xlink="http://www.w3.org/1999/xlink" width="20.313" height="25" viewBox="0 0 20.313 25">
  <defs>
    <linearGradient id="linear-gradient" x1="0.5" x2="0.5" y2="0.594" gradientUnits="objectBoundingBox">
      <stop offset="0" stop-color="#fafafa"/>
      <stop offset="1" stop-color="#ffb4cc"/>
    </linearGradient>
  </defs>
  <path id="popular" d="M16.314,6.846C14.39,5.086,12.728,3.565,12.728.977a.977.977,0,0,0-1.5-.825l-.155.1A31.81,31.81,0,0,0,5.144,4.931C2.062,8.1.5,11.426.5,14.8a10.189,10.189,0,0,0,9.8,10.188q.129.007.26.007h.1a10.146,10.146,0,0,0,6.8-2.609.977.977,0,0,0-1.306-1.452,8.236,8.236,0,0,1-1,.77,4.77,4.77,0,0,0,.248-1.522,5.106,5.106,0,0,0-2.086-3.839c-.92-.873-1.647-1.562-1.647-2.871a.976.976,0,0,0-1.608-.744c-.177.15-4.327,3.716-4.327,7.455a4.78,4.78,0,0,0,.191,1.34A8.25,8.25,0,0,1,2.453,14.8c0-4.124,3.01-8.4,8.511-12.15a7.558,7.558,0,0,0,1.2,2.63,18.848,18.848,0,0,0,2.833,3c1.977,1.81,3.845,3.519,3.864,6.524a8.161,8.161,0,0,1-.308,2.281.977.977,0,0,0,1.879.533,10.122,10.122,0,0,0,.382-2.826c-.024-3.858-2.4-6.033-4.5-7.952ZM7.677,20.187c0-1.657,1.3-3.514,2.429-4.767a7.47,7.47,0,0,0,1.856,2.345c.943.895,1.477,1.448,1.477,2.422a2.873,2.873,0,0,1-2.848,2.859l-.133,0H10.4a2.872,2.872,0,0,1-2.725-2.855Zm0,0" transform="translate(-0.5 0)" fill="url(#linear-gradient)"/>
</svg>
