<svg xmlns="http://www.w3.org/2000/svg" xmlns:xlink="http://www.w3.org/1999/xlink" width="42.995" height="43" viewBox="0 0 42.995 43">
  <defs>
    <style>
      .cls-1 {
        fill: url(#linear-gradient);
      }

      .cls-2 {
        filter: url(#sing);
      }
    </style>
    <linearGradient id="linear-gradient" x1="0.5" x2="0.5" y2="1" gradientUnits="objectBoundingBox">
      <stop offset="0" stop-color="#fff"/>
      <stop offset="1" stop-color="#ffb4cc"/>
    </linearGradient>
    <filter id="sing" x="0" y="0" width="42.995" height="43" filterUnits="userSpaceOnUse">
      <feOffset dy="3" input="SourceAlpha"/>
      <feGaussianBlur stdDeviation="3" result="blur"/>
      <feFlood flood-opacity="0.161"/>
      <feComposite operator="in" in2="blur"/>
      <feComposite in="SourceGraphic"/>
    </filter>
  </defs>
  <g class="cls-2" transform="matrix(1, 0, 0, 1, 0, 0)">
    <path id="sing-2" data-name="sing" class="cls-1" d="M23.961,1.535a5.239,5.239,0,0,0-7.41,0L11.942,6.144a.979.979,0,0,0-.244.408L10.982,8.92,9.963,7.9a.976.976,0,0,0-1.381,0L4.3,12.18a.976.976,0,0,0,0,1.381l1.713,1.713L1.134,20.625l-.036.042a2.654,2.654,0,0,0,3.746,3.725l.042-.036,5.313-4.9,1.737,1.737a.976.976,0,0,0,1.381,0l4.279-4.279a.976.976,0,0,0,0-1.381l-1.006-1.006,2.347-.719a.977.977,0,0,0,.4-.239l1.123-1.111a.976.976,0,0,0-1.373-1.388l-.952.942-3.108.952-2.477-2.477.79-2.614,2.436,2.435a.976.976,0,1,0,1.38-1.381L14.537,6.31l3.395-3.395A3.3,3.3,0,0,1,22.58,7.591L22.174,8a.976.976,0,0,0,1.377,1.384l.409-.409a5.273,5.273,0,0,0,0-7.437ZM3.586,22.9a.7.7,0,0,1-.987-.982l4.8-5.261,1.418,1.418Zm9.04-3.776L6.374,12.87l2.9-2.9,6.251,6.251Zm0,0" transform="translate(8.5 6)"/>
  </g>
</svg>
